<svg xmlns="http://www.w3.org/2000/svg" xmlns:xlink="http://www.w3.org/1999/xlink" width="1220" height="704" xml:space="preserve"><defs><linearGradient x1="62.943" y1="62.5487" x2="236.61" y2="62.5487" gradientUnits="userSpaceOnUse" spreadMethod="reflect" id="fill0"><stop offset="0" stop-color="#7030A0"></stop><stop offset="0.00900901" stop-color="#6F30A1"></stop><stop offset="0.018018" stop-color="#6F31A3"></stop><stop offset="0.027027" stop-color="#6F32A4"></stop><stop offset="0.036036" stop-color="#6F33A6"></stop><stop offset="0.045045" stop-color="#6F34A7"></stop><stop offset="0.0540541" stop-color="#6F35A9"></stop><stop offset="0.0630631" stop-color="#6F36AA"></stop><stop offset="0.0720721" stop-color="#6F37AC"></stop><stop offset="0.0810811" stop-color="#6E37AD"></stop><stop offset="0.0900901" stop-color="#6E38AF"></stop><stop offset="0.0990991" stop-color="#6E39B0"></stop><stop offset="0.108108" stop-color="#6E3AB2"></stop><stop offset="0.117117" stop-color="#6D3BB3"></stop><stop offset="0.126126" stop-color="#6D3CB5"></stop><stop offset="0.135135" stop-color="#6D3CB6"></stop><stop offset="0.144144" stop-color="#6D3DB8"></stop><stop offset="0.153153" stop-color="#6C3EB9"></stop><stop offset="0.162162" stop-color="#6C3FBA"></stop><stop offset="0.171171" stop-color="#6B40BC"></stop><stop offset="0.18018" stop-color="#6B40BD"></stop><stop offset="0.189189" stop-color="#6B41BE"></stop><stop offset="0.198198" stop-color="#6A42C0"></stop><stop offset="0.207207" stop-color="#6A43C1"></stop><stop offset="0.216216" stop-color="#6943C2"></stop><stop offset="0.225225" stop-color="#6944C4"></stop><stop offset="0.234234" stop-color="#6845C5"></stop><stop offset="0.243243" stop-color="#6845C6"></stop><stop offset="0.252252" stop-color="#6746C7"></stop><stop offset="0.261261" stop-color="#6647C9"></stop><stop offset="0.27027" stop-color="#6648CA"></stop><stop offset="0.279279" stop-color="#6548CB"></stop><stop offset="0.288288" stop-color="#6549CC"></stop><stop offset="0.297297" stop-color="#644ACD"></stop><stop offset="0.306306" stop-color="#634ACF"></stop><stop offset="0.315315" stop-color="#634BD0"></stop><stop offset="0.324324" stop-color="#624CD1"></stop><stop offset="0.333333" stop-color="#614CD2"></stop><stop offset="0.342342" stop-color="#604DD3"></stop><stop offset="0.351351" stop-color="#604ED4"></stop><stop offset="0.36036" stop-color="#5F4ED5"></stop><stop offset="0.369369" stop-color="#5E4FD6"></stop><stop offset="0.378378" stop-color="#5D4FD8"></stop><stop offset="0.387387" stop-color="#5D50D9"></stop><stop offset="0.396396" stop-color="#5C51DA"></stop><stop offset="0.405405" stop-color="#5B51DB"></stop><stop offset="0.414414" stop-color="#5A52DC"></stop><stop offset="0.423423" stop-color="#5952DD"></stop><stop offset="0.432432" stop-color="#5853DE"></stop><stop offset="0.441441" stop-color="#5753DF"></stop><stop offset="0.45045" stop-color="#5654E0"></stop><stop offset="0.459459" stop-color="#5554E1"></stop><stop offset="0.468468" stop-color="#5455E1"></stop><stop offset="0.477477" stop-color="#5356E2"></stop><stop offset="0.486486" stop-color="#5256E3"></stop><stop offset="0.495495" stop-color="#5157E4"></stop><stop offset="0.504505" stop-color="#5057E5"></stop><stop offset="0.513514" stop-color="#4F58E6"></stop><stop offset="0.522523" stop-color="#4E58E7"></stop><stop offset="0.531532" stop-color="#4D58E8"></stop><stop offset="0.540541" stop-color="#4C59E8"></stop><stop offset="0.54955" stop-color="#4B59E9"></stop><stop offset="0.558559" stop-color="#4A5AEA"></stop><stop offset="0.567568" stop-color="#495AEB"></stop><stop offset="0.576577" stop-color="#485BEC"></stop><stop offset="0.585586" stop-color="#465BEC"></stop><stop offset="0.594595" stop-color="#455CED"></stop><stop offset="0.603604" stop-color="#445CEE"></stop><stop offset="0.612613" stop-color="#435CEE"></stop><stop offset="0.621622" stop-color="#425DEF"></stop><stop offset="0.630631" stop-color="#405DF0"></stop><stop offset="0.63964" stop-color="#3F5EF0"></stop><stop offset="0.648649" stop-color="#3E5EF1"></stop><stop offset="0.657658" stop-color="#3C5EF2"></stop><stop offset="0.666667" stop-color="#3B5FF2"></stop><stop offset="0.675676" stop-color="#3A5FF3"></stop><stop offset="0.684685" stop-color="#385FF4"></stop><stop offset="0.693694" stop-color="#3760F4"></stop><stop offset="0.702703" stop-color="#3660F5"></stop><stop offset="0.711712" stop-color="#3460F5"></stop><stop offset="0.720721" stop-color="#3361F6"></stop><stop offset="0.72973" stop-color="#3161F6"></stop><stop offset="0.738739" stop-color="#3061F7"></stop><stop offset="0.747748" stop-color="#2F61F7"></stop><stop offset="0.756757" stop-color="#2D62F8"></stop><stop offset="0.765766" stop-color="#2C62F8"></stop><stop offset="0.774775" stop-color="#2A62F9"></stop><stop offset="0.783784" stop-color="#2962F9"></stop><stop offset="0.792793" stop-color="#2763FA"></stop><stop offset="0.801802" stop-color="#2563FA"></stop><stop offset="0.810811" stop-color="#2463FA"></stop><stop offset="0.81982" stop-color="#2263FB"></stop><stop offset="0.828829" stop-color="#2164FB"></stop><stop offset="0.837838" stop-color="#1F64FB"></stop><stop offset="0.846847" stop-color="#1D64FC"></stop><stop offset="0.855856" stop-color="#1C64FC"></stop><stop offset="0.864865" stop-color="#1A64FC"></stop><stop offset="0.873874" stop-color="#1964FD"></stop><stop offset="0.882883" stop-color="#1765FD"></stop><stop offset="0.891892" stop-color="#1565FD"></stop><stop offset="0.900901" stop-color="#1365FD"></stop><stop offset="0.90991" stop-color="#1265FD"></stop><stop offset="0.918919" stop-color="#1065FE"></stop><stop offset="0.927928" stop-color="#0E65FE"></stop><stop offset="0.936937" stop-color="#0C65FE"></stop><stop offset="0.945946" stop-color="#0B65FE"></stop><stop offset="0.954955" stop-color="#0965FE"></stop><stop offset="0.963964" stop-color="#0765FE"></stop><stop offset="0.972973" stop-color="#0565FE"></stop><stop offset="0.981982" stop-color="#0365FE"></stop><stop offset="0.990991" stop-color="#0165FE"></stop><stop offset="1" stop-color="#0066FF"></stop></linearGradient><linearGradient x1="110" y1="259" x2="1180" y2="259" gradientUnits="userSpaceOnUse" spreadMethod="reflect" id="fill1"><stop offset="0" stop-color="#7030A0" stop-opacity="0.101961"></stop><stop offset="0.00900901" stop-color="#6F30A1" stop-opacity="0.105564"></stop><stop offset="0.018018" stop-color="#6F31A3" stop-opacity="0.109168"></stop><stop offset="0.027027" stop-color="#6F32A4" stop-opacity="0.112772"></stop><stop offset="0.036036" stop-color="#6F33A6" stop-opacity="0.116375"></stop><stop offset="0.045045" stop-color="#6F34A7" stop-opacity="0.119979"></stop><stop offset="0.0540541" stop-color="#6F35A9" stop-opacity="0.123582"></stop><stop offset="0.0630631" stop-color="#6F36AA" stop-opacity="0.127186"></stop><stop offset="0.0720721" stop-color="#6F37AC" stop-opacity="0.13079"></stop><stop offset="0.0810811" stop-color="#6E37AD" stop-opacity="0.134393"></stop><stop offset="0.0900901" stop-color="#6E38AF" stop-opacity="0.137997"></stop><stop offset="0.0990991" stop-color="#6E39B0" stop-opacity="0.1416"></stop><stop offset="0.108108" stop-color="#6E3AB2" stop-opacity="0.145204"></stop><stop offset="0.117117" stop-color="#6D3BB3" stop-opacity="0.148808"></stop><stop offset="0.126126" stop-color="#6D3CB5" stop-opacity="0.152411"></stop><stop offset="0.135135" stop-color="#6D3CB6" stop-opacity="0.156015"></stop><stop offset="0.144144" stop-color="#6D3DB8" stop-opacity="0.159618"></stop><stop offset="0.153153" stop-color="#6C3EB9" stop-opacity="0.163222"></stop><stop offset="0.162162" stop-color="#6C3FBA" stop-opacity="0.166826"></stop><stop offset="0.171171" stop-color="#6B40BC" stop-opacity="0.170429"></stop><stop offset="0.18018" stop-color="#6B40BD" stop-opacity="0.174033"></stop><stop offset="0.189189" stop-color="#6B41BE" stop-opacity="0.177636"></stop><stop offset="0.198198" stop-color="#6A42C0" stop-opacity="0.18124"></stop><stop offset="0.207207" stop-color="#6A43C1" stop-opacity="0.184844"></stop><stop offset="0.216216" stop-color="#6943C2" stop-opacity="0.188447"></stop><stop offset="0.225225" stop-color="#6944C4" stop-opacity="0.192051"></stop><stop offset="0.234234" stop-color="#6845C5" stop-opacity="0.195654"></stop><stop offset="0.243243" stop-color="#6845C6" stop-opacity="0.199258"></stop><stop offset="0.252252" stop-color="#6746C7" stop-opacity="0.202862"></stop><stop offset="0.261261" stop-color="#6647C9" stop-opacity="0.206465"></stop><stop offset="0.27027" stop-color="#6648CA" stop-opacity="0.210069"></stop><stop offset="0.279279" stop-color="#6548CB" stop-opacity="0.213673"></stop><stop offset="0.288288" stop-color="#6549CC" stop-opacity="0.217276"></stop><stop offset="0.297297" stop-color="#644ACD" stop-opacity="0.22088"></stop><stop offset="0.306306" stop-color="#634ACF" stop-opacity="0.224483"></stop><stop offset="0.315315" stop-color="#634BD0" stop-opacity="0.228087"></stop><stop offset="0.324324" stop-color="#624CD1" stop-opacity="0.231691"></stop><stop offset="0.333333" stop-color="#614CD2" stop-opacity="0.235294"></stop><stop offset="0.342342" stop-color="#604DD3" stop-opacity="0.238898"></stop><stop offset="0.351351" stop-color="#604ED4" stop-opacity="0.242501"></stop><stop offset="0.36036" stop-color="#5F4ED5" stop-opacity="0.246105"></stop><stop offset="0.369369" stop-color="#5E4FD6" stop-opacity="0.249709"></stop><stop offset="0.378378" stop-color="#5D4FD8" stop-opacity="0.253312"></stop><stop offset="0.387387" stop-color="#5D50D9" stop-opacity="0.256916"></stop><stop offset="0.396396" stop-color="#5C51DA" stop-opacity="0.260519"></stop><stop offset="0.405405" stop-color="#5B51DB" stop-opacity="0.264123"></stop><stop offset="0.414414" stop-color="#5A52DC" stop-opacity="0.267727"></stop><stop offset="0.423423" stop-color="#5952DD" stop-opacity="0.27133"></stop><stop offset="0.432432" stop-color="#5853DE" stop-opacity="0.274934"></stop><stop offset="0.441441" stop-color="#5753DF" stop-opacity="0.278537"></stop><stop offset="0.45045" stop-color="#5654E0" stop-opacity="0.282141"></stop><stop offset="0.459459" stop-color="#5554E1" stop-opacity="0.285745"></stop><stop offset="0.468468" stop-color="#5455E1" stop-opacity="0.289348"></stop><stop offset="0.477477" stop-color="#5356E2" stop-opacity="0.292952"></stop><stop offset="0.486486" stop-color="#5256E3" stop-opacity="0.296555"></stop><stop offset="0.495495" stop-color="#5157E4" stop-opacity="0.300159"></stop><stop offset="0.504505" stop-color="#5057E5" stop-opacity="0.303763"></stop><stop offset="0.513514" stop-color="#4F58E6" stop-opacity="0.307366"></stop><stop offset="0.522523" stop-color="#4E58E7" stop-opacity="0.31097"></stop><stop offset="0.531532" stop-color="#4D58E8" stop-opacity="0.314573"></stop><stop offset="0.540541" stop-color="#4C59E8" stop-opacity="0.318177"></stop><stop offset="0.54955" stop-color="#4B59E9" stop-opacity="0.321781"></stop><stop offset="0.558559" stop-color="#4A5AEA" stop-opacity="0.325384"></stop><stop offset="0.567568" stop-color="#495AEB" stop-opacity="0.328988"></stop><stop offset="0.576577" stop-color="#485BEC" stop-opacity="0.332591"></stop><stop offset="0.585586" stop-color="#465BEC" stop-opacity="0.336195"></stop><stop offset="0.594595" stop-color="#455CED" stop-opacity="0.339799"></stop><stop offset="0.603604" stop-color="#445CEE" stop-opacity="0.343402"></stop><stop offset="0.612613" stop-color="#435CEE" stop-opacity="0.347006"></stop><stop offset="0.621622" stop-color="#425DEF" stop-opacity="0.350609"></stop><stop offset="0.630631" stop-color="#405DF0" stop-opacity="0.354213"></stop><stop offset="0.63964" stop-color="#3F5EF0" stop-opacity="0.357817"></stop><stop offset="0.648649" stop-color="#3E5EF1" stop-opacity="0.36142"></stop><stop offset="0.657658" stop-color="#3C5EF2" stop-opacity="0.365024"></stop><stop offset="0.666667" stop-color="#3B5FF2" stop-opacity="0.368627"></stop><stop offset="0.675676" stop-color="#3A5FF3" stop-opacity="0.372231"></stop><stop offset="0.684685" stop-color="#385FF4" stop-opacity="0.375835"></stop><stop offset="0.693694" stop-color="#3760F4" stop-opacity="0.379438"></stop><stop offset="0.702703" stop-color="#3660F5" stop-opacity="0.383042"></stop><stop offset="0.711712" stop-color="#3460F5" stop-opacity="0.386645"></stop><stop offset="0.720721" stop-color="#3361F6" stop-opacity="0.390249"></stop><stop offset="0.72973" stop-color="#3161F6" stop-opacity="0.393853"></stop><stop offset="0.738739" stop-color="#3061F7" stop-opacity="0.397456"></stop><stop offset="0.747748" stop-color="#2F61F7" stop-opacity="0.40106"></stop><stop offset="0.756757" stop-color="#2D62F8" stop-opacity="0.404664"></stop><stop offset="0.765766" stop-color="#2C62F8" stop-opacity="0.408267"></stop><stop offset="0.774775" stop-color="#2A62F9" stop-opacity="0.411871"></stop><stop offset="0.783784" stop-color="#2962F9" stop-opacity="0.415474"></stop><stop offset="0.792793" stop-color="#2763FA" stop-opacity="0.419078"></stop><stop offset="0.801802" stop-color="#2563FA" stop-opacity="0.422682"></stop><stop offset="0.810811" stop-color="#2463FA" stop-opacity="0.426285"></stop><stop offset="0.81982" stop-color="#2263FB" stop-opacity="0.429889"></stop><stop offset="0.828829" stop-color="#2164FB" stop-opacity="0.433492"></stop><stop offset="0.837838" stop-color="#1F64FB" stop-opacity="0.437096"></stop><stop offset="0.846847" stop-color="#1D64FC" stop-opacity="0.4407"></stop><stop offset="0.855856" stop-color="#1C64FC" stop-opacity="0.444303"></stop><stop offset="0.864865" stop-color="#1A64FC" stop-opacity="0.447907"></stop><stop offset="0.873874" stop-color="#1964FD" stop-opacity="0.45151"></stop><stop offset="0.882883" stop-color="#1765FD" stop-opacity="0.455114"></stop><stop offset="0.891892" stop-color="#1565FD" stop-opacity="0.458718"></stop><stop offset="0.900901" stop-color="#1365FD" stop-opacity="0.462321"></stop><stop offset="0.90991" stop-color="#1265FD" stop-opacity="0.465925"></stop><stop offset="0.918919" stop-color="#1065FE" stop-opacity="0.469528"></stop><stop offset="0.927928" stop-color="#0E65FE" stop-opacity="0.473132"></stop><stop offset="0.936937" stop-color="#0C65FE" stop-opacity="0.476736"></stop><stop offset="0.945946" stop-color="#0B65FE" stop-opacity="0.480339"></stop><stop offset="0.954955" stop-color="#0965FE" stop-opacity="0.483943"></stop><stop offset="0.963964" stop-color="#0765FE" stop-opacity="0.487546"></stop><stop offset="0.972973" stop-color="#0565FE" stop-opacity="0.49115"></stop><stop offset="0.981982" stop-color="#0365FE" stop-opacity="0.494754"></stop><stop offset="0.990991" stop-color="#0165FE" stop-opacity="0.498357"></stop><stop offset="1" stop-color="#0066FF" stop-opacity="0.501961"></stop></linearGradient><linearGradient x1="782.819" y1="64.1093" x2="1175.65" y2="64.1093" gradientUnits="userSpaceOnUse" spreadMethod="reflect" id="fill2"><stop offset="0" stop-color="#7030A0"></stop><stop offset="0.00900901" stop-color="#6F30A1"></stop><stop offset="0.018018" stop-color="#6F31A3"></stop><stop offset="0.027027" stop-color="#6F32A4"></stop><stop offset="0.036036" stop-color="#6F33A6"></stop><stop offset="0.045045" stop-color="#6F34A7"></stop><stop offset="0.0540541" stop-color="#6F35A9"></stop><stop offset="0.0630631" stop-color="#6F36AA"></stop><stop offset="0.0720721" stop-color="#6F37AC"></stop><stop offset="0.0810811" stop-color="#6E37AD"></stop><stop offset="0.0900901" stop-color="#6E38AF"></stop><stop offset="0.0990991" stop-color="#6E39B0"></stop><stop offset="0.108108" stop-color="#6E3AB2"></stop><stop offset="0.117117" stop-color="#6D3BB3"></stop><stop offset="0.126126" stop-color="#6D3CB5"></stop><stop offset="0.135135" stop-color="#6D3CB6"></stop><stop offset="0.144144" stop-color="#6D3DB8"></stop><stop offset="0.153153" stop-color="#6C3EB9"></stop><stop offset="0.162162" stop-color="#6C3FBA"></stop><stop offset="0.171171" stop-color="#6B40BC"></stop><stop offset="0.18018" stop-color="#6B40BD"></stop><stop offset="0.189189" stop-color="#6B41BE"></stop><stop offset="0.198198" stop-color="#6A42C0"></stop><stop offset="0.207207" stop-color="#6A43C1"></stop><stop offset="0.216216" stop-color="#6943C2"></stop><stop offset="0.225225" stop-color="#6944C4"></stop><stop offset="0.234234" stop-color="#6845C5"></stop><stop offset="0.243243" stop-color="#6845C6"></stop><stop offset="0.252252" stop-color="#6746C7"></stop><stop offset="0.261261" stop-color="#6647C9"></stop><stop offset="0.27027" stop-color="#6648CA"></stop><stop offset="0.279279" stop-color="#6548CB"></stop><stop offset="0.288288" stop-color="#6549CC"></stop><stop offset="0.297297" stop-color="#644ACD"></stop><stop offset="0.306306" stop-color="#634ACF"></stop><stop offset="0.315315" stop-color="#634BD0"></stop><stop offset="0.324324" stop-color="#624CD1"></stop><stop offset="0.333333" stop-color="#614CD2"></stop><stop offset="0.342342" stop-color="#604DD3"></stop><stop offset="0.351351" stop-color="#604ED4"></stop><stop offset="0.36036" stop-color="#5F4ED5"></stop><stop offset="0.369369" stop-color="#5E4FD6"></stop><stop offset="0.378378" stop-color="#5D4FD8"></stop><stop offset="0.387387" stop-color="#5D50D9"></stop><stop offset="0.396396" stop-color="#5C51DA"></stop><stop offset="0.405405" stop-color="#5B51DB"></stop><stop offset="0.414414" stop-color="#5A52DC"></stop><stop offset="0.423423" stop-color="#5952DD"></stop><stop offset="0.432432" stop-color="#5853DE"></stop><stop offset="0.441441" stop-color="#5753DF"></stop><stop offset="0.45045" stop-color="#5654E0"></stop><stop offset="0.459459" stop-color="#5554E1"></stop><stop offset="0.468468" stop-color="#5455E1"></stop><stop offset="0.477477" stop-color="#5356E2"></stop><stop offset="0.486486" stop-color="#5256E3"></stop><stop offset="0.495495" stop-color="#5157E4"></stop><stop offset="0.504505" stop-color="#5057E5"></stop><stop offset="0.513514" stop-color="#4F58E6"></stop><stop offset="0.522523" stop-color="#4E58E7"></stop><stop offset="0.531532" stop-color="#4D58E8"></stop><stop offset="0.540541" stop-color="#4C59E8"></stop><stop offset="0.54955" stop-color="#4B59E9"></stop><stop offset="0.558559" stop-color="#4A5AEA"></stop><stop offset="0.567568" stop-color="#495AEB"></stop><stop offset="0.576577" stop-color="#485BEC"></stop><stop offset="0.585586" stop-color="#465BEC"></stop><stop offset="0.594595" stop-color="#455CED"></stop><stop offset="0.603604" stop-color="#445CEE"></stop><stop offset="0.612613" stop-color="#435CEE"></stop><stop offset="0.621622" stop-color="#425DEF"></stop><stop offset="0.630631" stop-color="#405DF0"></stop><stop offset="0.63964" stop-color="#3F5EF0"></stop><stop offset="0.648649" stop-color="#3E5EF1"></stop><stop offset="0.657658" stop-color="#3C5EF2"></stop><stop offset="0.666667" stop-color="#3B5FF2"></stop><stop offset="0.675676" stop-color="#3A5FF3"></stop><stop offset="0.684685" stop-color="#385FF4"></stop><stop offset="0.693694" stop-color="#3760F4"></stop><stop offset="0.702703" stop-color="#3660F5"></stop><stop offset="0.711712" stop-color="#3460F5"></stop><stop offset="0.720721" stop-color="#3361F6"></stop><stop offset="0.72973" stop-color="#3161F6"></stop><stop offset="0.738739" stop-color="#3061F7"></stop><stop offset="0.747748" stop-color="#2F61F7"></stop><stop offset="0.756757" stop-color="#2D62F8"></stop><stop offset="0.765766" stop-color="#2C62F8"></stop><stop offset="0.774775" stop-color="#2A62F9"></stop><stop offset="0.783784" stop-color="#2962F9"></stop><stop offset="0.792793" stop-color="#2763FA"></stop><stop offset="0.801802" stop-color="#2563FA"></stop><stop offset="0.810811" stop-color="#2463FA"></stop><stop offset="0.81982" stop-color="#2263FB"></stop><stop offset="0.828829" stop-color="#2164FB"></stop><stop offset="0.837838" stop-color="#1F64FB"></stop><stop offset="0.846847" stop-color="#1D64FC"></stop><stop offset="0.855856" stop-color="#1C64FC"></stop><stop offset="0.864865" stop-color="#1A64FC"></stop><stop offset="0.873874" stop-color="#1964FD"></stop><stop offset="0.882883" stop-color="#1765FD"></stop><stop offset="0.891892" stop-color="#1565FD"></stop><stop offset="0.900901" stop-color="#1365FD"></stop><stop offset="0.90991" stop-color="#1265FD"></stop><stop offset="0.918919" stop-color="#1065FE"></stop><stop offset="0.927928" stop-color="#0E65FE"></stop><stop offset="0.936937" stop-color="#0C65FE"></stop><stop offset="0.945946" stop-color="#0B65FE"></stop><stop offset="0.954955" stop-color="#0965FE"></stop><stop offset="0.963964" stop-color="#0765FE"></stop><stop offset="0.972973" stop-color="#0565FE"></stop><stop offset="0.981982" stop-color="#0365FE"></stop><stop offset="0.990991" stop-color="#0165FE"></stop><stop offset="1" stop-color="#0066FF"></stop></linearGradient><linearGradient x1="782.819" y1="64.1093" x2="1175.65" y2="64.1093" gradientUnits="userSpaceOnUse" spreadMethod="reflect" id="fill3"><stop offset="0" stop-color="#7030A0"></stop><stop offset="0.00900901" stop-color="#6F30A1"></stop><stop offset="0.018018" stop-color="#6F31A3"></stop><stop offset="0.027027" stop-color="#6F32A4"></stop><stop offset="0.036036" stop-color="#6F33A6"></stop><stop offset="0.045045" stop-color="#6F34A7"></stop><stop offset="0.0540541" stop-color="#6F35A9"></stop><stop offset="0.0630631" stop-color="#6F36AA"></stop><stop offset="0.0720721" stop-color="#6F37AC"></stop><stop offset="0.0810811" stop-color="#6E37AD"></stop><stop offset="0.0900901" stop-color="#6E38AF"></stop><stop offset="0.0990991" stop-color="#6E39B0"></stop><stop offset="0.108108" stop-color="#6E3AB2"></stop><stop offset="0.117117" stop-color="#6D3BB3"></stop><stop offset="0.126126" stop-color="#6D3CB5"></stop><stop offset="0.135135" stop-color="#6D3CB6"></stop><stop offset="0.144144" stop-color="#6D3DB8"></stop><stop offset="0.153153" stop-color="#6C3EB9"></stop><stop offset="0.162162" stop-color="#6C3FBA"></stop><stop offset="0.171171" stop-color="#6B40BC"></stop><stop offset="0.18018" stop-color="#6B40BD"></stop><stop offset="0.189189" stop-color="#6B41BE"></stop><stop offset="0.198198" stop-color="#6A42C0"></stop><stop offset="0.207207" stop-color="#6A43C1"></stop><stop offset="0.216216" stop-color="#6943C2"></stop><stop offset="0.225225" stop-color="#6944C4"></stop><stop offset="0.234234" stop-color="#6845C5"></stop><stop offset="0.243243" stop-color="#6845C6"></stop><stop offset="0.252252" stop-color="#6746C7"></stop><stop offset="0.261261" stop-color="#6647C9"></stop><stop offset="0.27027" stop-color="#6648CA"></stop><stop offset="0.279279" stop-color="#6548CB"></stop><stop offset="0.288288" stop-color="#6549CC"></stop><stop offset="0.297297" stop-color="#644ACD"></stop><stop offset="0.306306" stop-color="#634ACF"></stop><stop offset="0.315315" stop-color="#634BD0"></stop><stop offset="0.324324" stop-color="#624CD1"></stop><stop offset="0.333333" stop-color="#614CD2"></stop><stop offset="0.342342" stop-color="#604DD3"></stop><stop offset="0.351351" stop-color="#604ED4"></stop><stop offset="0.36036" stop-color="#5F4ED5"></stop><stop offset="0.369369" stop-color="#5E4FD6"></stop><stop offset="0.378378" stop-color="#5D4FD8"></stop><stop offset="0.387387" stop-color="#5D50D9"></stop><stop offset="0.396396" stop-color="#5C51DA"></stop><stop offset="0.405405" stop-color="#5B51DB"></stop><stop offset="0.414414" stop-color="#5A52DC"></stop><stop offset="0.423423" stop-color="#5952DD"></stop><stop offset="0.432432" stop-color="#5853DE"></stop><stop offset="0.441441" stop-color="#5753DF"></stop><stop offset="0.45045" stop-color="#5654E0"></stop><stop offset="0.459459" stop-color="#5554E1"></stop><stop offset="0.468468" stop-color="#5455E1"></stop><stop offset="0.477477" stop-color="#5356E2"></stop><stop offset="0.486486" stop-color="#5256E3"></stop><stop offset="0.495495" stop-color="#5157E4"></stop><stop offset="0.504505" stop-color="#5057E5"></stop><stop offset="0.513514" stop-color="#4F58E6"></stop><stop offset="0.522523" stop-color="#4E58E7"></stop><stop offset="0.531532" stop-color="#4D58E8"></stop><stop offset="0.540541" stop-color="#4C59E8"></stop><stop offset="0.54955" stop-color="#4B59E9"></stop><stop offset="0.558559" stop-color="#4A5AEA"></stop><stop offset="0.567568" stop-color="#495AEB"></stop><stop offset="0.576577" stop-color="#485BEC"></stop><stop offset="0.585586" stop-color="#465BEC"></stop><stop offset="0.594595" stop-color="#455CED"></stop><stop offset="0.603604" stop-color="#445CEE"></stop><stop offset="0.612613" stop-color="#435CEE"></stop><stop offset="0.621622" stop-color="#425DEF"></stop><stop offset="0.630631" stop-color="#405DF0"></stop><stop offset="0.63964" stop-color="#3F5EF0"></stop><stop offset="0.648649" stop-color="#3E5EF1"></stop><stop offset="0.657658" stop-color="#3C5EF2"></stop><stop offset="0.666667" stop-color="#3B5FF2"></stop><stop offset="0.675676" stop-color="#3A5FF3"></stop><stop offset="0.684685" stop-color="#385FF4"></stop><stop offset="0.693694" stop-color="#3760F4"></stop><stop offset="0.702703" stop-color="#3660F5"></stop><stop offset="0.711712" stop-color="#3460F5"></stop><stop offset="0.720721" stop-color="#3361F6"></stop><stop offset="0.72973" stop-color="#3161F6"></stop><stop offset="0.738739" stop-color="#3061F7"></stop><stop offset="0.747748" stop-color="#2F61F7"></stop><stop offset="0.756757" stop-color="#2D62F8"></stop><stop offset="0.765766" stop-color="#2C62F8"></stop><stop offset="0.774775" stop-color="#2A62F9"></stop><stop offset="0.783784" stop-color="#2962F9"></stop><stop offset="0.792793" stop-color="#2763FA"></stop><stop offset="0.801802" stop-color="#2563FA"></stop><stop offset="0.810811" stop-color="#2463FA"></stop><stop offset="0.81982" stop-color="#2263FB"></stop><stop offset="0.828829" stop-color="#2164FB"></stop><stop offset="0.837838" stop-color="#1F64FB"></stop><stop offset="0.846847" stop-color="#1D64FC"></stop><stop offset="0.855856" stop-color="#1C64FC"></stop><stop offset="0.864865" stop-color="#1A64FC"></stop><stop offset="0.873874" stop-color="#1964FD"></stop><stop offset="0.882883" stop-color="#1765FD"></stop><stop offset="0.891892" stop-color="#1565FD"></stop><stop offset="0.900901" stop-color="#1365FD"></stop><stop offset="0.90991" stop-color="#1265FD"></stop><stop offset="0.918919" stop-color="#1065FE"></stop><stop offset="0.927928" stop-color="#0E65FE"></stop><stop offset="0.936937" stop-color="#0C65FE"></stop><stop offset="0.945946" stop-color="#0B65FE"></stop><stop offset="0.954955" stop-color="#0965FE"></stop><stop offset="0.963964" stop-color="#0765FE"></stop><stop offset="0.972973" stop-color="#0565FE"></stop><stop offset="0.981982" stop-color="#0365FE"></stop><stop offset="0.990991" stop-color="#0165FE"></stop><stop offset="1" stop-color="#0066FF"></stop></linearGradient></defs><g transform="translate(-30 -8)"><path d="M48 25.7132C48 15.9305 55.9305 8 65.7132 8L1232.29 8C1242.07 8 1250 15.9305 1250 25.7132L1250 694.287C1250 704.07 1242.07 712 1232.29 712L65.7132 712C55.9305 712 48 704.07 48 694.287Z" fill="#F2F2F2" fill-rule="evenodd"></path><path d="M127.661 65.7218C126.8 66.0734 125.508 66.3722 123.785 66.6183 122.81 66.7589 122.12 66.9171 121.715 67.0929 121.311 67.2687 120.999 67.5258 120.779 67.8641 120.56 68.2025 120.45 68.5783 120.45 68.9913 120.45 69.6242 120.689 70.1515 121.168 70.5734 121.647 70.9952 122.348 71.2062 123.271 71.2062 124.185 71.2062 124.998 71.0062 125.71 70.6063 126.422 70.2064 126.945 69.6593 127.279 68.965 127.534 68.4288 127.661 67.6378 127.661 66.5919ZM214.405 60.3956C213.218 60.3956 212.234 60.8395 211.452 61.7272 210.67 62.6149 210.278 63.9552 210.278 65.7482 210.278 67.5411 210.67 68.8837 211.452 69.7758 212.234 70.6679 213.218 71.1139 214.405 71.1139 215.583 71.1139 216.563 70.6657 217.345 69.7692 218.127 68.8727 218.518 67.506 218.518 65.6691 218.518 63.9376 218.125 62.6259 217.338 61.7338 216.552 60.8417 215.574 60.3956 214.405 60.3956ZM165.405 60.3956C164.218 60.3956 163.234 60.8395 162.452 61.7272 161.67 62.6149 161.278 63.9552 161.278 65.7482 161.278 67.5411 161.67 68.8837 162.452 69.7758 163.234 70.6679 164.218 71.1139 165.405 71.1139 166.583 71.1139 167.563 70.6657 168.345 69.7692 169.127 68.8727 169.518 67.506 169.518 65.6691 169.518 63.9376 169.125 62.6259 168.338 61.7338 167.552 60.8417 166.574 60.3956 165.405 60.3956ZM95.049 60.3956C93.9943 60.3956 93.0978 60.8241 92.3595 61.681 91.6212 62.538 91.2521 63.8102 91.2521 65.4977 91.2521 67.3346 91.6168 68.6749 92.3463 69.5187 93.0758 70.3624 93.9899 70.7843 95.0885 70.7843 96.1783 70.7843 97.0924 70.3646 97.8307 69.5253 98.569 68.6859 98.9381 67.3698 98.9381 65.5768 98.9381 63.8629 98.558 62.5709 97.7977 61.7008 97.0375 60.8307 96.1212 60.3956 95.049 60.3956ZM202.736 58.7477 205.109 58.7477 205.109 72.7487 202.736 72.7487ZM180.67 58.7477 183.043 58.7477 183.043 66.5128C183.043 67.7521 183.091 68.587 183.188 69.0177 183.338 69.6417 183.654 70.1317 184.137 70.4877 184.621 70.8436 185.218 71.0216 185.93 71.0216 186.642 71.0216 187.31 70.8392 187.934 70.4745 188.558 70.1097 189 69.6132 189.259 68.9847 189.518 68.3563 189.648 67.4445 189.648 66.2491L189.648 58.7477 192.021 58.7477 192.021 72.7487 189.899 72.7487 189.899 70.692C188.809 72.2741 187.328 73.0651 185.456 73.0651 184.63 73.0651 183.858 72.9069 183.142 72.5905 182.426 72.2741 181.894 71.8763 181.547 71.3973 181.2 70.9183 180.956 70.3317 180.815 69.6373 180.718 69.1715 180.67 68.4332 180.67 67.4225ZM104.736 58.7477 107.109 58.7477 107.109 72.7487 104.736 72.7487ZM83.736 58.7477 86.109 58.7477 86.109 72.7487 83.736 72.7487ZM230.315 58.4313C231.158 58.4313 231.934 58.5829 232.641 58.8861 233.349 59.1893 233.879 59.587 234.23 60.0792 234.582 60.5714 234.828 61.1559 234.968 61.8326 235.056 62.2721 235.1 63.0411 235.1 64.1398L235.1 72.7487 232.727 72.7487 232.727 64.2321C232.727 63.2653 232.635 62.5424 232.45 62.0634 232.266 61.5844 231.938 61.202 231.468 60.9164 230.998 60.6307 230.446 60.4879 229.814 60.4879 228.803 60.4879 227.931 60.8087 227.197 61.4503 226.463 62.0919 226.096 63.3092 226.096 65.1022L226.096 72.7487 223.723 72.7487 223.723 58.7477 225.859 58.7477 225.859 60.7384C226.887 59.2003 228.372 58.4313 230.315 58.4313ZM214.405 58.4313C216.33 58.4313 217.903 59.0619 219.125 60.3231 220.346 61.5844 220.957 63.3268 220.957 65.5504 220.957 67.3522 220.687 68.7694 220.146 69.8021 219.606 70.8348 218.819 71.6368 217.786 72.2081 216.754 72.7794 215.627 73.0651 214.405 73.0651 212.445 73.0651 210.861 72.4367 209.652 71.1798 208.444 69.923 207.839 68.1124 207.839 65.7482 207.839 63.1554 208.56 61.235 210.002 59.9869 211.206 58.9498 212.673 58.4313 214.405 58.4313ZM165.405 58.4313C167.33 58.4313 168.903 59.0619 170.125 60.3231 171.346 61.5844 171.957 63.3268 171.957 65.5504 171.957 67.3522 171.687 68.7694 171.146 69.8021 170.606 70.8348 169.819 71.6368 168.786 72.2081 167.754 72.7794 166.627 73.0651 165.405 73.0651 163.445 73.0651 161.861 72.4367 160.652 71.1798 159.444 69.923 158.839 68.1124 158.839 65.7482 158.839 63.1554 159.56 61.235 161.002 59.9869 162.206 58.9498 163.673 58.4313 165.405 58.4313ZM151.324 58.4313C152.422 58.4313 153.387 58.5895 154.218 58.9059 155.048 59.2223 155.661 59.6508 156.057 60.1913 156.452 60.7318 156.725 61.4547 156.874 62.36L154.554 62.6764C154.448 61.9557 154.143 61.3932 153.638 60.9889 153.132 60.5846 152.418 60.3824 151.495 60.3824 150.405 60.3824 149.628 60.5626 149.162 60.923 148.696 61.2833 148.463 61.7052 148.463 62.1886 148.463 62.4962 148.56 62.7731 148.753 63.0192 148.946 63.274 149.25 63.485 149.663 63.652 149.9 63.7399 150.599 63.942 151.759 64.2584 153.438 64.7067 154.609 65.0736 155.272 65.3593 155.936 65.6449 156.457 66.0602 156.835 66.6051 157.213 67.15 157.401 67.8268 157.401 68.6354 157.401 69.4264 157.171 70.1713 156.709 70.87 156.248 71.5687 155.582 72.1093 154.712 72.4916 153.842 72.8739 152.858 73.0651 151.759 73.0651 149.94 73.0651 148.553 72.6871 147.599 71.9313 146.646 71.1754 146.037 70.0548 145.774 68.5695L148.12 68.2003C148.252 69.1408 148.619 69.8615 149.221 70.3624 149.823 70.8634 150.665 71.1139 151.746 71.1139 152.836 71.1139 153.644 70.892 154.172 70.4481 154.699 70.0043 154.963 69.4835 154.963 68.8859 154.963 68.3497 154.73 67.9279 154.264 67.6202 153.939 67.4093 153.13 67.1412 151.838 66.816 150.098 66.3766 148.891 65.9965 148.219 65.6757 147.547 65.3549 147.037 64.911 146.69 64.3441 146.343 63.7772 146.169 63.151 146.169 62.4655 146.169 61.8414 146.312 61.2635 146.598 60.7318 146.883 60.2001 147.272 59.7584 147.764 59.4069 148.133 59.1344 148.637 58.9037 149.274 58.7147 149.911 58.5258 150.594 58.4313 151.324 58.4313ZM124.642 58.4313C125.838 58.4313 126.809 58.5719 127.556 58.8531 128.303 59.1344 128.852 59.4882 129.204 59.9144 129.555 60.3407 129.801 60.879 129.942 61.5294 130.021 61.9337 130.061 62.6632 130.061 63.7179L130.061 66.882C130.061 69.088 130.111 70.4833 130.212 71.0678 130.313 71.6522 130.513 72.2125 130.812 72.7487L128.334 72.7487C128.088 72.2565 127.929 71.6808 127.859 71.0216 126.98 71.7687 126.134 72.296 125.321 72.6036 124.508 72.9113 123.636 73.0651 122.704 73.0651 121.166 73.0651 119.984 72.6893 119.158 71.9379 118.332 71.1864 117.919 70.2262 117.919 69.0573 117.919 68.3717 118.075 67.7455 118.387 67.1786 118.699 66.6117 119.107 66.1569 119.613 65.8141 120.118 65.4713 120.687 65.212 121.32 65.0363 121.786 64.9132 122.489 64.7946 123.429 64.6803 125.345 64.4518 126.756 64.1793 127.661 63.8629 127.67 63.5377 127.674 63.3312 127.674 63.2433 127.674 62.2765 127.45 61.5953 127.002 61.1998 126.396 60.6637 125.495 60.3956 124.299 60.3956 123.183 60.3956 122.359 60.5912 121.828 60.9823 121.296 61.3734 120.902 62.0656 120.648 63.0587L118.327 62.7423C118.538 61.7492 118.885 60.9472 119.369 60.3363 119.852 59.7255 120.551 59.2553 121.465 58.9257 122.379 58.5961 123.438 58.4313 124.642 58.4313ZM94.8776 58.4313C96.5299 58.4313 97.8922 59.0992 98.9645 60.4352L98.9645 58.7477 101.153 58.7477 101.153 70.8502C101.153 73.0299 100.931 74.5746 100.487 75.4843 100.043 76.3939 99.3402 77.1124 98.3778 77.6398 97.4154 78.1671 96.2311 78.4308 94.8248 78.4308 93.1549 78.4308 91.8058 78.0551 90.7775 77.3036 89.7491 76.5521 89.2526 75.4205 89.2877 73.9088L91.5948 74.2516C91.6915 74.9635 91.9596 75.4821 92.399 75.8073 92.9879 76.2467 93.7921 76.4664 94.8116 76.4664 95.9103 76.4664 96.7584 76.2467 97.3561 75.8073 97.9537 75.3678 98.358 74.7526 98.569 73.9616 98.692 73.4782 98.7491 72.463 98.7404 70.9161 97.7032 72.1378 96.4113 72.7487 94.8644 72.7487 92.9396 72.7487 91.4498 72.0543 90.3951 70.6657 89.3405 69.277 88.8131 67.6115 88.8131 65.6691 88.8131 64.3331 89.0548 63.1005 89.5382 61.9711 90.0216 60.8417 90.7225 59.9694 91.641 59.3541 92.5594 58.7389 93.6383 58.4313 94.8776 58.4313ZM67.5836 55.7023 67.5836 70.4679 71.7101 70.4679C72.9845 70.4679 73.9843 70.3492 74.7094 70.1119 75.4344 69.8746 76.0123 69.5407 76.443 69.11 77.0494 68.5035 77.5219 67.6884 77.8602 66.6644 78.1986 65.6405 78.3678 64.399 78.3678 62.9401 78.3678 60.9186 78.036 59.3651 77.3724 58.2797 76.7089 57.1942 75.9025 56.4669 74.9532 56.0978 74.2677 55.8341 73.1647 55.7023 71.6442 55.7023ZM198.518 53.8566 198.518 58.7477 200.904 58.7477 200.904 60.5934 198.518 60.5934 198.518 68.7804C198.518 69.4572 198.559 69.8922 198.643 70.0856 198.726 70.2789 198.863 70.4327 199.052 70.547 199.241 70.6613 199.511 70.7184 199.862 70.7184 200.126 70.7184 200.473 70.6876 200.904 70.6261L201.247 72.7223C200.579 72.8629 199.981 72.9332 199.454 72.9332 198.592 72.9332 197.924 72.797 197.45 72.5245 196.975 72.2521 196.641 71.8939 196.448 71.4501 196.255 71.0062 196.158 70.0724 196.158 68.6486L196.158 60.5934 194.418 60.5934 194.418 58.7477 196.158 58.7477 196.158 55.2804ZM113.518 53.8566 113.518 58.7477 115.904 58.7477 115.904 60.5934 113.518 60.5934 113.518 68.7804C113.518 69.4572 113.559 69.8922 113.643 70.0856 113.726 70.2789 113.863 70.4327 114.052 70.547 114.241 70.6613 114.511 70.7184 114.862 70.7184 115.126 70.7184 115.473 70.6876 115.904 70.6261L116.247 72.7223C115.579 72.8629 114.981 72.9332 114.454 72.9332 113.592 72.9332 112.924 72.797 112.45 72.5245 111.975 72.2521 111.641 71.8939 111.448 71.4501 111.255 71.0062 111.158 70.0724 111.158 68.6486L111.158 60.5934 109.418 60.5934 109.418 58.7477 111.158 58.7477 111.158 55.2804ZM202.736 53.4215 205.109 53.4215 205.109 56.1505 202.736 56.1505ZM174.67 53.4215 177.043 53.4215 177.043 72.7487 174.67 72.7487ZM132.67 53.4215 135.043 53.4215 135.043 72.7487 132.67 72.7487ZM104.736 53.4215 107.109 53.4215 107.109 56.1505 104.736 56.1505ZM83.736 53.4215 86.109 53.4215 86.109 56.1505 83.736 56.1505ZM65.026 53.4215 71.6837 53.4215C73.1866 53.4215 74.3336 53.5138 75.1246 53.6984 76.2321 53.9532 77.1769 54.4147 77.9591 55.0826 78.9786 55.944 79.7411 57.0448 80.2465 58.3851 80.7518 59.7255 81.0045 61.257 81.0045 62.9796 81.0045 64.4474 80.8331 65.7482 80.4904 66.882 80.1476 68.0158 79.7081 68.954 79.172 69.6967 78.6359 70.4393 78.0492 71.0238 77.412 71.4501 76.7748 71.8763 76.0057 72.1993 75.1049 72.4191 74.204 72.6388 73.1691 72.7487 72.0001 72.7487L65.026 72.7487Z" fill="url(#fill0)" fill-rule="evenodd"></path><text font-family="Arial,Arial_MSFontService,sans-serif" font-weight="400" font-size="53" transform="translate(62.943 131)">Instalanes</text><text font-family="Arial,Arial_MSFontService,sans-serif" font-weight="400" font-size="27" transform="translate(62.943 169)">TMS </text><text font-family="Arial,Arial_MSFontService,sans-serif" font-weight="400" font-size="27" transform="translate(126.61 169)">and visibility platform</text><path d="M337 361.856C337 354.203 343.203 348 350.856 348L929.144 348C936.797 348 943 354.203 943 361.856L943 669.144C943 676.797 936.797 683 929.144 683L350.856 683C343.203 683 337 676.797 337 669.144Z" fill="#D5DBE5" fill-rule="evenodd"></path><text font-family="Arial,Arial_MSFontService,sans-serif" font-weight="400" font-size="16" transform="translate(351.002 373)">Capability enablers</text><path d="M110 364.732C110 355.491 117.491 348 126.732 348L300.268 348C309.509 348 317 355.491 317 364.732L317 666.268C317 675.509 309.509 683 300.268 683L126.732 683C117.491 683 110 675.509 110 666.268Z" fill="#D5DBE5" fill-rule="evenodd"></path><text font-family="Arial,Arial_MSFontService,sans-serif" font-weight="400" font-size="16" transform="translate(124.634 374)">TMS implementation</text><path d="M129 404.5C129 397.044 135.044 391 142.5 391L196.5 391C203.956 391 210 397.044 210 404.5L210 458.5C210 465.956 203.956 472 196.5 472L142.5 472C135.044 472 129 465.956 129 458.5Z" fill="#F2F2F2" fill-rule="evenodd"></path><text font-family="Arial,Arial_MSFontService,sans-serif" font-weight="400" font-size="13" transform="translate(145.24 428)">Account </text><text font-family="Arial,Arial_MSFontService,sans-serif" font-weight="400" font-size="13" transform="translate(152.907 444)">users</text><path d="M218 404.5C218 397.044 224.044 391 231.5 391L285.5 391C292.956 391 299 397.044 299 404.5L299 458.5C299 465.956 292.956 472 285.5 472L231.5 472C224.044 472 218 465.956 218 458.5Z" fill="#F2F2F2" fill-rule="evenodd"></path><text font-family="Arial,Arial_MSFontService,sans-serif" font-weight="400" font-size="13" transform="translate(244.447 436)">APIs</text><path d="M129 502.5C129 495.044 135.044 489 142.5 489L196.5 489C203.956 489 210 495.044 210 502.5L210 556.5C210 563.956 203.956 570 196.5 570L142.5 570C135.044 570 129 563.956 129 556.5Z" fill="#F2F2F2" fill-rule="evenodd"></path><text font-family="Arial,Arial_MSFontService,sans-serif" font-weight="400" font-size="13" transform="translate(151.824 526)">Rates </text><text font-family="Arial,Arial_MSFontService,sans-serif" font-weight="400" font-size="13" transform="translate(148.824 542)">master</text><path d="M218 502.5C218 495.044 224.044 489 231.5 489L285.5 489C292.956 489 299 495.044 299 502.5L299 556.5C299 563.956 292.956 570 285.5 570L231.5 570C224.044 570 218 563.956 218 556.5Z" fill="#F2F2F2" fill-rule="evenodd"></path><text font-family="Arial,Arial_MSFontService,sans-serif" font-weight="400" font-size="13" transform="translate(240.447 526)">Lanes </text><text font-family="Arial,Arial_MSFontService,sans-serif" font-weight="400" font-size="13" transform="translate(238.114 542)">master</text><path d="M129 600.5C129 593.044 135.044 587 142.5 587L196.5 587C203.956 587 210 593.044 210 600.5L210 655.5C210 662.956 203.956 669 196.5 669L142.5 669C135.044 669 129 662.956 129 655.5Z" fill="#F2F2F2" fill-rule="evenodd"></path><text font-family="Arial,Arial_MSFontService,sans-serif" font-weight="400" font-size="13" transform="translate(147.407 625)">Vehicle </text><text font-family="Arial,Arial_MSFontService,sans-serif" font-weight="400" font-size="13" transform="translate(148.827 641)">master</text><path d="M218 600.5C218 593.044 224.044 587 231.5 587L285.5 587C292.956 587 299 593.044 299 600.5L299 655.5C299 662.956 292.956 669 285.5 669L231.5 669C224.044 669 218 662.956 218 655.5Z" fill="#F2F2F2" fill-rule="evenodd"></path><text font-family="Arial,Arial_MSFontService,sans-serif" font-weight="400" font-size="13" transform="translate(240.614 625)">Driver </text><text font-family="Arial,Arial_MSFontService,sans-serif" font-weight="400" font-size="13" transform="translate(238.114 641)">master</text><path d="M151.334 294.5C144.798 294.5 139.5 289.202 139.5 282.667L139.5 235.334C139.5 228.798 144.798 223.5 151.334 223.5M248.667 223.5C255.202 223.5 260.5 228.798 260.5 235.334L260.5 282.667C260.5 289.202 255.202 294.5 248.667 294.5" stroke="#000000" stroke-miterlimit="8" fill="none" fill-rule="evenodd"></path><text font-family="Arial,Arial_MSFontService,sans-serif" font-weight="700" font-size="16" transform="translate(180.323 246)">Load </text><text font-family="Arial,Arial_MSFontService,sans-serif" font-weight="700" font-size="16" transform="translate(166.576 265)">dispatch </text><text font-family="Arial,Arial_MSFontService,sans-serif" font-weight="700" font-size="16" transform="translate(170.576 284)">planner</text><path d="M301.334 294.5C294.798 294.5 289.5 289.202 289.5 282.667L289.5 235.334C289.5 228.798 294.798 223.5 301.334 223.5M398.667 223.5C405.202 223.5 410.5 228.798 410.5 235.334L410.5 282.667C410.5 289.202 405.202 294.5 398.667 294.5" stroke="#000000" stroke-miterlimit="8" fill="none" fill-rule="evenodd"></path><text font-family="Arial,Arial_MSFontService,sans-serif" font-weight="700" font-size="16" transform="translate(312.039 255)">Transport </text><text font-family="Arial,Arial_MSFontService,sans-serif" font-weight="700" font-size="16" transform="translate(328.959 274)">order</text><path d="M451.334 294.5C444.798 294.5 439.5 289.202 439.5 282.666L439.5 235.334C439.5 228.798 444.798 223.5 451.334 223.5M547.666 223.5C554.202 223.5 559.5 228.798 559.5 235.334L559.5 282.666C559.5 289.202 554.202 294.5 547.666 294.5" stroke="#000000" stroke-miterlimit="8" fill="none" fill-rule="evenodd"></path><text font-family="Arial,Arial_MSFontService,sans-serif" font-weight="700" font-size="16" transform="translate(465.505 246)">Rate and </text><text font-family="Arial,Arial_MSFontService,sans-serif" font-weight="700" font-size="16" transform="translate(473.172 265)">Carrier </text><text font-family="Arial,Arial_MSFontService,sans-serif" font-weight="700" font-size="16" transform="translate(464.585 284)">selection</text><path d="M751.334 294.5C744.798 294.5 739.5 289.202 739.5 282.666L739.5 235.334C739.5 228.798 744.798 223.5 751.334 223.5M847.666 223.5C854.202 223.5 859.5 228.798 859.5 235.334L859.5 282.666C859.5 289.202 854.202 294.5 847.666 294.5" stroke="#000000" stroke-miterlimit="8" fill="none" fill-rule="evenodd"></path><text font-family="Arial,Arial_MSFontService,sans-serif" font-weight="700" font-size="16" transform="translate(760.76 246)">Execution </text><text font-family="Arial,Arial_MSFontService,sans-serif" font-weight="700" font-size="16" transform="translate(784.76 265)">and </text><text font-family="Arial,Arial_MSFontService,sans-serif" font-weight="700" font-size="16" transform="translate(767.927 284)">tracking</text><path d="M901.334 294.5C894.798 294.5 889.5 289.202 889.5 282.666L889.5 235.334C889.5 228.798 894.798 223.5 901.334 223.5M997.666 223.5C1004.2 223.5 1009.5 228.798 1009.5 235.334L1009.5 282.666C1009.5 289.202 1004.2 294.5 997.666 294.5" stroke="#000000" stroke-miterlimit="8" fill="none" fill-rule="evenodd"></path><text font-family="Arial,Arial_MSFontService,sans-serif" font-weight="700" font-size="16" transform="translate(911.973 255)">ePoD and </text><text font-family="Arial,Arial_MSFontService,sans-serif" font-weight="700" font-size="16" transform="translate(924.306 274)">Billing</text><path d="M1051.33 294.5C1044.8 294.5 1039.5 289.202 1039.5 282.666L1039.5 235.334C1039.5 228.798 1044.8 223.5 1051.33 223.5M1147.67 223.5C1154.2 223.5 1159.5 228.798 1159.5 235.334L1159.5 282.666C1159.5 289.202 1154.2 294.5 1147.67 294.5" stroke="#000000" stroke-miterlimit="8" fill="none" fill-rule="evenodd"></path><text font-family="Arial,Arial_MSFontService,sans-serif" font-weight="700" font-size="16" transform="translate(1060.94 265)">Reporting</text><path d="M601.334 294.5C594.798 294.5 589.5 289.202 589.5 282.666L589.5 235.334C589.5 228.798 594.798 223.5 601.334 223.5M697.666 223.5C704.202 223.5 709.5 228.798 709.5 235.334L709.5 282.666C709.5 289.202 704.202 294.5 697.666 294.5" stroke="#000000" stroke-miterlimit="8" fill="none" fill-rule="evenodd"></path><text font-family="Arial,Arial_MSFontService,sans-serif" font-weight="700" font-size="16" transform="translate(608.214 265)">Shipments</text><path d="M271.5 252.5 279.5 257 271.5 261.5Z" stroke="#000000" stroke-miterlimit="8" fill="#D8D8D8" fill-rule="evenodd"></path><path d="M421.5 252.5 429.5 257 421.5 261.5Z" stroke="#000000" stroke-miterlimit="8" fill="#D8D8D8" fill-rule="evenodd"></path><path d="M571.5 252.5 579.5 257 571.5 261.5Z" stroke="#000000" stroke-miterlimit="8" fill="#D8D8D8" fill-rule="evenodd"></path><path d="M721.5 252.5 729.5 257 721.5 261.5Z" stroke="#000000" stroke-miterlimit="8" fill="#D8D8D8" fill-rule="evenodd"></path><path d="M871.5 252.5 879.5 257 871.5 261.5Z" stroke="#000000" stroke-miterlimit="8" fill="#D8D8D8" fill-rule="evenodd"></path><path d="M1021.5 252.5 1029.5 257 1021.5 261.5Z" stroke="#000000" stroke-miterlimit="8" fill="#D8D8D8" fill-rule="evenodd"></path><path d="M351 402.931C351 396.342 356.342 391 362.931 391L912.069 391C918.658 391 924 396.342 924 402.931L924 425.069C924 431.658 918.658 437 912.069 437L362.931 437C356.342 437 351 431.658 351 425.069Z" fill="#F2F2F2" fill-rule="evenodd"></path><text font-family="Arial,Arial_MSFontService,sans-serif" font-weight="400" font-size="15" transform="translate(364.508 419)">Collaborative tracking and visibility</text><path d="M351 459.036C351 453.493 355.493 449 361.036 449L913.964 449C919.507 449 924 453.493 924 459.036L924 484.964C924 490.507 919.507 495 913.964 495L361.036 495C355.493 495 351 490.507 351 484.964Z" fill="#F2F2F2" fill-rule="evenodd"></path><text font-family="Arial,Arial_MSFontService,sans-serif" font-weight="400" font-size="15" transform="translate(363.949 477)">Control tower</text><path d="M351 515.772C351 510.927 354.927 507 359.772 507L626.228 507C631.073 507 635 510.927 635 515.772L635 544.228C635 549.073 631.073 553 626.228 553L359.772 553C354.927 553 351 549.073 351 544.228Z" fill="#F2F2F2" fill-rule="evenodd"></path><text font-family="Arial,Arial_MSFontService,sans-serif" font-weight="400" font-size="15" transform="translate(363.577 535)">Business Performance and Analytics</text><path d="M649 515.772C649 510.927 652.927 507 657.772 507L915.228 507C920.073 507 924 510.927 924 515.772L924 544.228C924 549.073 920.073 553 915.228 553L657.772 553C652.927 553 649 549.073 649 544.228Z" fill="#F2F2F2" fill-rule="evenodd"></path><text font-family="Arial,Arial_MSFontService,sans-serif" font-weight="400" font-size="15" transform="translate(661.157 535)">Mobile powered</text><path d="M351 573.772C351 568.927 354.927 565 359.772 565L626.228 565C631.073 565 635 568.927 635 573.772L635 602.228C635 607.073 631.073 611 626.228 611L359.772 611C354.927 611 351 607.073 351 602.228Z" fill="#F2F2F2" fill-rule="evenodd"></path><text font-family="Arial,Arial_MSFontService,sans-serif" font-weight="400" font-size="15" transform="translate(363.577 593)">Alerts and notifications</text><path d="M963 358.498C963 352.7 967.7 348 973.498 348L1174.5 348C1180.3 348 1185 352.7 1185 358.498L1185 672.502C1185 678.3 1180.3 683 1174.5 683L973.498 683C967.7 683 963 678.3 963 672.502Z" fill="#D5DBE5" fill-rule="evenodd"></path><text font-family="Arial,Arial_MSFontService,sans-serif" font-weight="400" font-size="16" transform="translate(975.458 372)">Business outcomes</text><path d="M825.5 404.667C825.5 402.366 827.366 400.5 829.667 400.5L909.333 400.5C911.635 400.5 913.5 402.366 913.5 404.667L913.5 421.333C913.5 423.635 911.635 425.5 909.333 425.5L829.667 425.5C827.366 425.5 825.5 423.635 825.5 421.333Z" stroke="#FFFFFF" stroke-miterlimit="8" fill="#D5DBE5" fill-rule="evenodd"></path><text font-family="Arial,Arial_MSFontService,sans-serif" font-weight="400" font-size="13" transform="translate(838.45 418)">Driver app</text><path d="M730.5 404.667C730.5 402.366 732.366 400.5 734.667 400.5L814.333 400.5C816.635 400.5 818.5 402.366 818.5 404.667L818.5 421.333C818.5 423.635 816.635 425.5 814.333 425.5L734.667 425.5C732.366 425.5 730.5 423.635 730.5 421.333Z" stroke="#FFFFFF" stroke-miterlimit="8" fill="#D5DBE5" fill-rule="evenodd"></path><text font-family="Arial,Arial_MSFontService,sans-serif" font-weight="400" font-size="13" transform="translate(754.286 418)">Mobile</text><path d="M635.5 404.667C635.5 402.366 637.366 400.5 639.667 400.5L718.333 400.5C720.635 400.5 722.5 402.366 722.5 404.667L722.5 421.333C722.5 423.635 720.635 425.5 718.333 425.5L639.667 425.5C637.366 425.5 635.5 423.635 635.5 421.333Z" stroke="#FFFFFF" stroke-miterlimit="8" fill="#D5DBE5" fill-rule="evenodd"></path><text font-family="Arial,Arial_MSFontService,sans-serif" font-weight="400" font-size="13" transform="translate(646.457 418)">Telematics</text><path d="M797.5 462.5C797.5 460.291 799.291 458.5 801.5 458.5L909.5 458.5C911.709 458.5 913.5 460.291 913.5 462.5L913.5 478.5C913.5 480.709 911.709 482.5 909.5 482.5L801.5 482.5C799.291 482.5 797.5 480.709 797.5 478.5Z" stroke="#FFFFFF" stroke-miterlimit="8" fill="#D5DBE5" fill-rule="evenodd"></path><text font-family="Arial,Arial_MSFontService,sans-serif" font-weight="400" font-size="13" transform="translate(836.272 475)">Status</text><path d="M671.5 462.5C671.5 460.291 673.291 458.5 675.5 458.5L783.5 458.5C785.709 458.5 787.5 460.291 787.5 462.5L787.5 478.5C787.5 480.709 785.709 482.5 783.5 482.5L675.5 482.5C673.291 482.5 671.5 480.709 671.5 478.5Z" stroke="#FFFFFF" stroke-miterlimit="8" fill="#D5DBE5" fill-rule="evenodd"></path><text font-family="Arial,Arial_MSFontService,sans-serif" font-weight="400" font-size="13" transform="translate(695.89 475)">Next action</text><path d="M545.5 462.5C545.5 460.291 547.291 458.5 549.5 458.5L657.5 458.5C659.709 458.5 661.5 460.291 661.5 462.5L661.5 478.5C661.5 480.709 659.709 482.5 657.5 482.5L549.5 482.5C547.291 482.5 545.5 480.709 545.5 478.5Z" stroke="#FFFFFF" stroke-miterlimit="8" fill="#D5DBE5" fill-rule="evenodd"></path><text font-family="Arial,Arial_MSFontService,sans-serif" font-weight="400" font-size="13" transform="translate(564.757 475)">Map bird eye</text><path d="M649 571.963C649 567.013 653.013 563 657.963 563L916.037 563C920.987 563 925 567.013 925 571.963L925 601.037C925 605.987 920.987 610 916.037 610L657.963 610C653.013 610 649 605.987 649 601.037Z" fill="#F2F2F2" fill-rule="evenodd"></path><text font-family="Arial,Arial_MSFontService,sans-serif" font-weight="400" font-size="15" transform="translate(661.157 592)">Documents centralisation</text><path d="M975 399.772C975 394.927 978.927 391 983.772 391L1163.23 391C1168.07 391 1172 394.927 1172 399.772L1172 428.228C1172 433.073 1168.07 437 1163.23 437L983.772 437C978.927 437 975 433.073 975 428.228Z" fill="#F2F2F2" fill-rule="evenodd"></path><text font-family="Arial,Arial_MSFontService,sans-serif" font-weight="400" font-size="15" transform="translate(986.822 419)">Collaboration</text><path d="M975 457.772C975 452.927 978.927 449 983.772 449L1163.23 449C1168.07 449 1172 452.927 1172 457.772L1172 486.228C1172 491.073 1168.07 495 1163.23 495L983.772 495C978.927 495 975 491.073 975 486.228Z" fill="#F2F2F2" fill-rule="evenodd"></path><text font-family="Arial,Arial_MSFontService,sans-serif" font-weight="400" font-size="15" transform="translate(986.822 477)">Cost optimization</text><path d="M975 515.772C975 510.927 978.927 507 983.772 507L1163.23 507C1168.07 507 1172 510.927 1172 515.772L1172 544.228C1172 549.073 1168.07 553 1163.23 553L983.772 553C978.927 553 975 549.073 975 544.228Z" fill="#F2F2F2" fill-rule="evenodd"></path><text font-family="Arial,Arial_MSFontService,sans-serif" font-weight="400" font-size="15" transform="translate(986.822 535)">Scalability</text><path d="M975 573.772C975 568.927 978.927 565 983.772 565L1163.23 565C1168.07 565 1172 568.927 1172 573.772L1172 602.228C1172 607.073 1168.07 611 1163.23 611L983.772 611C978.927 611 975 607.073 975 602.228Z" fill="#F2F2F2" fill-rule="evenodd"></path><text font-family="Arial,Arial_MSFontService,sans-serif" font-weight="400" font-size="15" transform="translate(986.822 593)">Visibility</text><path d="M351 631.772C351 626.927 354.927 623 359.772 623L625.228 623C630.073 623 634 626.927 634 631.772L634 660.228C634 665.073 630.073 669 625.228 669L359.772 669C354.927 669 351 665.073 351 660.228Z" fill="#F2F2F2" fill-rule="evenodd"></path><text font-family="Arial,Arial_MSFontService,sans-serif" font-weight="400" font-size="15" transform="translate(363.068 651)">Ops one view</text><path d="M648 629.963C648 625.013 652.013 621 656.963 621L915.037 621C919.987 621 924 625.013 924 629.963L924 659.037C924 663.987 919.987 668 915.037 668L656.963 668C652.013 668 648 663.987 648 659.037Z" fill="#F2F2F2" fill-rule="evenodd"></path><text font-family="Arial,Arial_MSFontService,sans-serif" font-weight="400" font-size="15" transform="translate(660.649 650)">Freight settlement view</text><path d="M975 629.963C975 625.013 979.013 621 983.963 621L1163.04 621C1167.99 621 1172 625.013 1172 629.963L1172 659.037C1172 663.987 1167.99 668 1163.04 668L983.963 668C979.013 668 975 663.987 975 659.037Z" fill="#F2F2F2" fill-rule="evenodd"></path><text font-family="Arial,Arial_MSFontService,sans-serif" font-weight="400" font-size="15" transform="translate(986.822 650)">Compliance</text><path d="M0 0.5-23.9999 0.5-23.4999 0-23.4999 257.228-23.9999 256.728 22.5302 256.728 22.5302 257.728-24.4999 257.728-24.4999-0.5 0-0.5ZM0-4C2.20914-4 4-2.20914 4 0 4 2.20914 2.20914 4 0 4-2.20914 4-4 2.20914-4 0-4-2.20914-2.20914-4 0-4ZM21.1968 253.228 29.1968 257.228 21.1968 261.228Z" transform="matrix(1 -1.22465e-16 -1.22465e-16 -1 110.5 515.728)"></path><path d="M1159.5 258 1210.33 258 1210.33 516.228 1192.5 516.228 1192.5 515.228 1209.83 515.228 1209.33 515.728 1209.33 258.5 1209.83 259 1159.5 259ZM1159.5 262.5C1157.29 262.5 1155.5 260.709 1155.5 258.5 1155.5 256.291 1157.29 254.5 1159.5 254.5 1161.71 254.5 1163.5 256.291 1163.5 258.5 1163.5 260.709 1161.71 262.5 1159.5 262.5ZM1193.83 519.728 1185.83 515.728 1193.83 511.728Z"></path><path d="M110 195 1180 195 1180 323 110 323Z" fill="url(#fill1)"></path><path d="M1017.54 67.0824C1016.68 67.434 1015.38 67.7328 1013.66 67.9789 1012.69 68.1195 1012 68.2777 1011.59 68.4535 1011.19 68.6293 1010.88 68.8864 1010.66 69.2248 1010.44 69.5631 1010.33 69.9389 1010.33 70.352 1010.33 70.9848 1010.57 71.5121 1011.04 71.934 1011.52 72.3559 1012.22 72.5668 1013.15 72.5668 1014.06 72.5668 1014.87 72.3669 1015.59 71.967 1016.3 71.5671 1016.82 71.0199 1017.16 70.3256 1017.41 69.7895 1017.54 68.9985 1017.54 67.9526ZM928.538 67.0824C927.676 67.434 926.384 67.7328 924.662 67.9789 923.686 68.1195 922.996 68.2777 922.592 68.4535 922.187 68.6293 921.875 68.8864 921.656 69.2248 921.436 69.5631 921.326 69.9389 921.326 70.352 921.326 70.9848 921.566 71.5121 922.045 71.934 922.524 72.3559 923.225 72.5668 924.147 72.5668 925.061 72.5668 925.874 72.3669 926.586 71.967 927.298 71.5671 927.821 71.0199 928.155 70.3256 928.41 69.7895 928.538 68.9985 928.538 67.9526ZM1042.28 61.7563C1041.09 61.7563 1040.11 62.2001 1039.33 63.0878 1038.55 63.9755 1038.15 65.3158 1038.15 67.1088 1038.15 68.9018 1038.55 70.2443 1039.33 71.1364 1040.11 72.0285 1041.09 72.4745 1042.28 72.4745 1043.46 72.4745 1044.44 72.0263 1045.22 71.1298 1046 70.2333 1046.39 68.8666 1046.39 67.0297 1046.39 65.2983 1046 63.9865 1045.21 63.0944 1044.43 62.2023 1043.45 61.7563 1042.28 61.7563ZM983.281 61.7563C982.095 61.7563 981.11 62.2001 980.328 63.0878 979.546 63.9755 979.155 65.3158 979.155 67.1088 979.155 68.9018 979.546 70.2443 980.328 71.1364 981.11 72.0285 982.095 72.4745 983.281 72.4745 984.459 72.4745 985.439 72.0263 986.221 71.1298 987.003 70.2333 987.394 68.8666 987.394 67.0297 987.394 65.2983 987.001 63.9865 986.215 63.0944 985.428 62.2023 984.45 61.7563 983.281 61.7563ZM877.886 61.7563C876.831 61.7563 875.95 62.1869 875.242 63.0483 874.535 63.9096 874.181 65.2675 874.181 67.122 874.181 68.915 874.559 70.2553 875.315 71.143 876.071 72.0307 876.963 72.4745 877.991 72.4745 879.028 72.4745 879.909 72.0504 880.634 71.2023 881.36 70.3542 881.722 69.06 881.722 67.3197 881.722 65.4037 881.353 63.9975 880.615 63.101 879.876 62.2045 878.967 61.7563 877.886 61.7563ZM814.925 61.7563C813.871 61.7563 812.974 62.1847 812.236 63.0417 811.497 63.8986 811.128 65.1708 811.128 66.8583 811.128 68.6952 811.493 70.0356 812.223 70.8793 812.952 71.7231 813.866 72.1449 814.965 72.1449 816.055 72.1449 816.969 71.7253 817.707 70.8859 818.445 70.0465 818.814 68.7304 818.814 66.9374 818.814 65.2235 818.434 63.9316 817.674 63.0614 816.914 62.1913 815.997 61.7563 814.925 61.7563ZM863.373 61.7431C862.284 61.7431 861.367 62.1078 860.625 62.8373 859.882 63.5668 859.471 64.5424 859.392 65.7641L867.21 65.7641C867.104 64.5863 866.806 63.703 866.313 63.1142 865.558 62.2001 864.578 61.7431 863.373 61.7431ZM968.598 61.6508C967.587 61.6508 966.693 62.1232 965.915 63.068 965.137 64.0129 964.748 65.3861 964.748 67.1879 964.748 68.9897 965.113 70.3212 965.842 71.1825 966.572 72.0439 967.455 72.4745 968.492 72.4745 969.547 72.4745 970.45 72.0285 971.201 71.1364 971.953 70.2443 972.329 68.8622 972.329 66.9902 972.329 65.206 971.962 63.87 971.228 62.9823 970.494 62.0946 969.617 61.6508 968.598 61.6508ZM1030.61 60.1083 1032.99 60.1083 1032.99 74.1093 1030.61 74.1093ZM843.874 60.1083 855.317 60.1083 855.317 61.6772 847.737 70.5629 846.273 72.1845C847.337 72.1054 848.334 72.0658 849.266 72.0658L855.739 72.0658 855.739 74.1093 843.347 74.1093 843.347 72.1845 852.259 61.954C851.248 62.0068 850.356 62.0331 849.582 62.0331L843.874 62.0331ZM838.612 60.1083 840.985 60.1083 840.985 74.1093 838.612 74.1093ZM824.612 60.1083 826.985 60.1083 826.985 74.1093 824.612 74.1093ZM803.612 60.1083 805.985 60.1083 805.985 74.1093 803.612 74.1093ZM1058.19 59.7919C1059.03 59.7919 1059.81 59.9435 1060.52 60.2467 1061.23 60.55 1061.75 60.9477 1062.11 61.4399 1062.46 61.932 1062.7 62.5165 1062.84 63.1933 1062.93 63.6327 1062.98 64.4018 1062.98 65.5004L1062.98 74.1093 1060.6 74.1093 1060.6 65.5927C1060.6 64.6259 1060.51 63.903 1060.33 63.424 1060.14 62.945 1059.81 62.5627 1059.34 62.277 1058.87 61.9914 1058.32 61.8485 1057.69 61.8485 1056.68 61.8485 1055.81 62.1693 1055.07 62.811 1054.34 63.4526 1053.97 64.6698 1053.97 66.4628L1053.97 74.1093 1051.6 74.1093 1051.6 60.1083 1053.73 60.1083 1053.73 62.099C1054.76 60.561 1056.25 59.7919 1058.19 59.7919ZM1042.28 59.7919C1044.21 59.7919 1045.78 60.4225 1047 61.6838 1048.22 62.945 1048.83 64.6874 1048.83 66.911 1048.83 68.7128 1048.56 70.13 1048.02 71.1628 1047.48 72.1955 1046.7 72.9975 1045.66 73.5688 1044.63 74.14 1043.5 74.4257 1042.28 74.4257 1040.32 74.4257 1038.74 73.7973 1037.53 72.5404 1036.32 71.2836 1035.72 69.4731 1035.72 67.1088 1035.72 64.516 1036.44 62.5956 1037.88 61.3476 1039.08 60.3105 1040.55 59.7919 1042.28 59.7919ZM1014.52 59.7919C1015.71 59.7919 1016.68 59.9325 1017.43 60.2138 1018.18 60.495 1018.73 60.8488 1019.08 61.2751 1019.43 61.7013 1019.68 62.2397 1019.82 62.8901 1019.9 63.2943 1019.94 64.0238 1019.94 65.0785L1019.94 68.2426C1019.94 70.4486 1019.99 71.8439 1020.09 72.4284 1020.19 73.0129 1020.39 73.5732 1020.69 74.1093L1018.21 74.1093C1017.96 73.6171 1017.81 73.0414 1017.74 72.3822 1016.86 73.1293 1016.01 73.6566 1015.2 73.9643 1014.38 74.2719 1013.51 74.4257 1012.58 74.4257 1011.04 74.4257 1009.86 74.05 1009.03 73.2985 1008.21 72.547 1007.79 71.5868 1007.79 70.4179 1007.79 69.7323 1007.95 69.1061 1008.26 68.5392 1008.58 67.9723 1008.98 67.5175 1009.49 67.1747 1009.99 66.8319 1010.56 66.5727 1011.2 66.3969 1011.66 66.2738 1012.36 66.1552 1013.31 66.0409 1015.22 65.8124 1016.63 65.54 1017.54 65.2235 1017.55 64.8984 1017.55 64.6918 1017.55 64.6039 1017.55 63.6371 1017.33 62.956 1016.88 62.5605 1016.27 62.0243 1015.37 61.7563 1014.18 61.7563 1013.06 61.7563 1012.24 61.9518 1011.7 62.3429 1011.17 62.734 1010.78 63.4262 1010.52 64.4193L1008.2 64.1029C1008.41 63.1098 1008.76 62.3078 1009.24 61.6969 1009.73 61.0861 1010.43 60.6159 1011.34 60.2863 1012.26 59.9567 1013.31 59.7919 1014.52 59.7919ZM997.741 59.7919C998.54 59.7919 999.353 60.0468 1000.18 60.5566L999.362 62.7582C998.782 62.4154 998.202 62.2441 997.622 62.2441 997.103 62.2441 996.638 62.4001 996.225 62.7121 995.811 63.0241 995.517 63.4569 995.341 64.0107 995.078 64.8544 994.946 65.7773 994.946 66.7792L994.946 74.1093 992.573 74.1093 992.573 60.1083 994.708 60.1083 994.708 62.2309C995.253 61.2377 995.757 60.5829 996.218 60.2665 996.679 59.9501 997.187 59.7919 997.741 59.7919ZM983.281 59.7919C985.206 59.7919 986.779 60.4225 988.001 61.6838 989.223 62.945 989.833 64.6874 989.833 66.911 989.833 68.7128 989.563 70.13 989.023 71.1628 988.482 72.1955 987.695 72.9975 986.663 73.5688 985.63 74.14 984.503 74.4257 983.281 74.4257 981.321 74.4257 979.737 73.7973 978.529 72.5404 977.32 71.2836 976.716 69.4731 976.716 67.1088 976.716 64.516 977.436 62.5956 978.878 61.3476 980.082 60.3105 981.55 59.7919 983.281 59.7919ZM968.822 59.7919C970.017 59.7919 971.072 60.0995 971.986 60.7148 972.9 61.33 973.59 62.1979 974.056 63.3185 974.521 64.4391 974.754 65.6674 974.754 67.0033 974.754 68.436 974.497 69.7257 973.983 70.8727 973.469 72.0197 972.722 72.8986 971.742 73.5094 970.762 74.1203 969.731 74.4257 968.65 74.4257 967.859 74.4257 967.15 74.2587 966.521 73.9247 965.893 73.5907 965.376 73.1689 964.972 72.6591L964.972 79.475 962.599 79.475 962.599 60.1083 964.761 60.1083 964.761 61.9277C965.271 61.2157 965.847 60.6818 966.488 60.3258 967.13 59.9699 967.908 59.7919 968.822 59.7919ZM954.2 59.7919C955.299 59.7919 956.263 59.9501 957.094 60.2665 957.924 60.5829 958.538 61.0114 958.933 61.5519 959.329 62.0924 959.601 62.8153 959.75 63.7206L957.43 64.037C957.325 63.3163 957.019 62.7538 956.514 62.3495 956.008 61.9452 955.294 61.7431 954.372 61.7431 953.282 61.7431 952.504 61.9233 952.038 62.2836 951.572 62.644 951.339 63.0658 951.339 63.5492 951.339 63.8568 951.436 64.1337 951.629 64.3798 951.823 64.6347 952.126 64.8456 952.539 65.0126 952.776 65.1005 953.475 65.3027 954.635 65.6191 956.314 66.0673 957.485 66.4342 958.149 66.7199 958.812 67.0055 959.333 67.4208 959.711 67.9657 960.089 68.5107 960.278 69.1874 960.278 69.996 960.278 70.787 960.047 71.5319 959.586 72.2306 959.124 72.9294 958.458 73.4699 957.588 73.8522 956.718 74.2345 955.734 74.4257 954.635 74.4257 952.816 74.4257 951.429 74.0478 950.476 73.2919 949.522 72.536 948.914 71.4154 948.65 69.9301L950.997 69.561C951.128 70.5014 951.495 71.2221 952.097 71.7231 952.699 72.224 953.541 72.4745 954.622 72.4745 955.712 72.4745 956.52 72.2526 957.048 71.8088 957.575 71.3649 957.839 70.8442 957.839 70.2465 957.839 69.7104 957.606 69.2885 957.14 68.9809 956.815 68.7699 956.006 68.5019 954.714 68.1767 952.974 67.7372 951.768 67.3571 951.095 67.0363 950.423 66.7155 949.913 66.2716 949.566 65.7048 949.219 65.1379 949.045 64.5116 949.045 63.8261 949.045 63.2021 949.188 62.6242 949.474 62.0924 949.759 61.5607 950.148 61.1191 950.641 60.7675 951.01 60.495 951.513 60.2643 952.15 60.0754 952.787 59.8864 953.471 59.7919 954.2 59.7919ZM941.191 59.7919C942.035 59.7919 942.81 59.9435 943.518 60.2467 944.225 60.55 944.755 60.9477 945.106 61.4399 945.458 61.932 945.704 62.5165 945.845 63.1933 945.933 63.6327 945.977 64.4018 945.977 65.5004L945.977 74.1093 943.603 74.1093 943.603 65.5927C943.603 64.6259 943.511 63.903 943.327 63.424 943.142 62.945 942.815 62.5627 942.344 62.277 941.874 61.9914 941.323 61.8485 940.69 61.8485 939.679 61.8485 938.807 62.1693 938.073 62.811 937.339 63.4526 936.972 64.6698 936.972 66.4628L936.972 74.1093 934.599 74.1093 934.599 60.1083 936.735 60.1083 936.735 62.099C937.763 60.561 939.248 59.7919 941.191 59.7919ZM925.518 59.7919C926.714 59.7919 927.685 59.9325 928.432 60.2138 929.179 60.495 929.728 60.8488 930.08 61.2751 930.432 61.7013 930.678 62.2397 930.818 62.8901 930.897 63.2943 930.937 64.0238 930.937 65.0785L930.937 68.2426C930.937 70.4486 930.987 71.8439 931.089 72.4284 931.19 73.0129 931.39 73.5732 931.688 74.1093L929.21 74.1093C928.964 73.6171 928.806 73.0414 928.735 72.3822 927.856 73.1293 927.01 73.6566 926.197 73.9643 925.384 74.2719 924.512 74.4257 923.581 74.4257 922.042 74.4257 920.86 74.05 920.034 73.2985 919.208 72.547 918.795 71.5868 918.795 70.4179 918.795 69.7323 918.951 69.1061 919.263 68.5392 919.575 67.9723 919.984 67.5175 920.489 67.1747 920.994 66.8319 921.563 66.5727 922.196 66.3969 922.662 66.2738 923.365 66.1552 924.306 66.0409 926.222 65.8124 927.632 65.54 928.538 65.2235 928.546 64.8984 928.551 64.6918 928.551 64.6039 928.551 63.6371 928.327 62.956 927.878 62.5605 927.272 62.0243 926.371 61.7563 925.176 61.7563 924.06 61.7563 923.236 61.9518 922.704 62.3429 922.172 62.734 921.779 63.4262 921.524 64.4193L919.204 64.1029C919.414 63.1098 919.762 62.3078 920.245 61.6969 920.728 61.0861 921.427 60.6159 922.341 60.2863 923.255 59.9567 924.314 59.7919 925.518 59.7919ZM915.741 59.7919C916.54 59.7919 917.353 60.0468 918.18 60.5566L917.362 62.7582C916.782 62.4154 916.202 62.2441 915.622 62.2441 915.103 62.2441 914.638 62.4001 914.225 62.7121 913.811 63.0241 913.517 63.4569 913.341 64.0107 913.078 64.8544 912.946 65.7773 912.946 66.7792L912.946 74.1093 910.573 74.1093 910.573 60.1083 912.708 60.1083 912.708 62.2309C913.253 61.2377 913.757 60.5829 914.218 60.2665 914.679 59.9501 915.187 59.7919 915.741 59.7919ZM863.347 59.7919C865.219 59.7919 866.748 60.4291 867.935 61.7035 869.122 62.9779 869.715 64.7709 869.715 67.0824 869.715 67.2231 869.71 67.434 869.702 67.7152L859.26 67.7152C859.348 69.2533 859.783 70.4311 860.565 71.2485 861.348 72.0658 862.323 72.4745 863.492 72.4745 864.362 72.4745 865.105 72.246 865.72 71.789 866.335 71.3319 866.823 70.6025 867.184 69.6005L869.636 69.9037C869.249 71.3363 868.533 72.4482 867.487 73.2392 866.441 74.0302 865.105 74.4257 863.479 74.4257 861.431 74.4257 859.807 73.7951 858.608 72.5339 857.408 71.2726 856.808 69.5038 856.808 67.2275 856.808 64.872 857.414 63.0439 858.627 61.7431 859.84 60.4423 861.414 59.7919 863.347 59.7919ZM814.754 59.7919C816.406 59.7919 817.768 60.4599 818.841 61.7958L818.841 60.1083 821.029 60.1083 821.029 72.2108C821.029 74.3905 820.807 75.9352 820.363 76.8449 819.92 77.7546 819.216 78.4731 818.254 79.0004 817.292 79.5277 816.107 79.7914 814.701 79.7914 813.031 79.7914 811.682 79.4157 810.654 78.6642 809.625 77.9128 809.129 76.7812 809.164 75.2694L811.471 75.6122C811.568 76.3241 811.836 76.8427 812.275 77.1679 812.864 77.6073 813.668 77.8271 814.688 77.8271 815.787 77.8271 816.635 77.6073 817.232 77.1679 817.83 76.7284 818.234 76.1132 818.445 75.3222 818.568 74.8388 818.625 73.8236 818.617 72.2768 817.58 73.4985 816.288 74.1093 814.741 74.1093 812.816 74.1093 811.326 73.415 810.271 72.0263 809.217 70.6376 808.689 68.9721 808.689 67.0297 808.689 65.6938 808.931 64.4611 809.414 63.3317 809.898 62.2023 810.599 61.33 811.517 60.7148 812.436 60.0995 813.515 59.7919 814.754 59.7919ZM787.46 57.0629 787.46 71.8285 791.586 71.8285C792.861 71.8285 793.861 71.7099 794.586 71.4726 795.311 71.2353 795.889 70.9013 796.319 70.4706 796.926 69.8642 797.398 69.049 797.737 68.0251 798.075 67.0011 798.244 65.7597 798.244 64.3007 798.244 62.2792 797.912 60.7257 797.249 59.6403 796.585 58.5548 795.779 57.8276 794.83 57.4584 794.144 57.1947 793.041 57.0629 791.52 57.0629ZM1026.39 55.2172 1026.39 60.1083 1028.78 60.1083 1028.78 61.954 1026.39 61.954 1026.39 70.141C1026.39 70.8178 1026.44 71.2528 1026.52 71.4462 1026.6 71.6396 1026.74 71.7934 1026.93 71.9076 1027.12 72.0219 1027.39 72.079 1027.74 72.079 1028 72.079 1028.35 72.0483 1028.78 71.9867L1029.12 74.0829C1028.46 74.2235 1027.86 74.2939 1027.33 74.2939 1026.47 74.2939 1025.8 74.1576 1025.33 73.8852 1024.85 73.6127 1024.52 73.2546 1024.32 72.8107 1024.13 72.3669 1024.03 71.433 1024.03 70.0092L1024.03 61.954 1022.29 61.954 1022.29 60.1083 1024.03 60.1083 1024.03 56.641ZM1004.39 55.2172 1004.39 60.1083 1006.78 60.1083 1006.78 61.954 1004.39 61.954 1004.39 70.141C1004.39 70.8178 1004.44 71.2528 1004.52 71.4462 1004.6 71.6396 1004.74 71.7934 1004.93 71.9076 1005.12 72.0219 1005.39 72.079 1005.74 72.079 1006 72.079 1006.35 72.0483 1006.78 71.9867L1007.12 74.0829C1006.46 74.2235 1005.86 74.2939 1005.33 74.2939 1004.47 74.2939 1003.8 74.1576 1003.33 73.8852 1002.85 73.6127 1002.52 73.2546 1002.32 72.8107 1002.13 72.3669 1002.03 71.433 1002.03 70.0092L1002.03 61.954 1000.29 61.954 1000.29 60.1083 1002.03 60.1083 1002.03 56.641ZM833.394 55.2172 833.394 60.1083 835.78 60.1083 835.78 61.954 833.394 61.954 833.394 70.141C833.394 70.8178 833.436 71.2528 833.519 71.4462 833.603 71.6396 833.739 71.7934 833.928 71.9076 834.117 72.0219 834.387 72.079 834.739 72.079 835.002 72.079 835.35 72.0483 835.78 71.9867L836.123 74.0829C835.455 74.2235 834.857 74.2939 834.33 74.2939 833.469 74.2939 832.801 74.1576 832.326 73.8852 831.852 73.6127 831.518 73.2546 831.324 72.8107 831.131 72.3669 831.034 71.433 831.034 70.0092L831.034 61.954 829.294 61.954 829.294 60.1083 831.034 60.1083 831.034 56.641ZM1030.61 54.7821 1032.99 54.7821 1032.99 57.5111 1030.61 57.5111ZM893.452 54.7821 908.771 54.7821 908.771 57.0629 902.377 57.0629 902.377 74.1093 899.82 74.1093 899.82 57.0629 893.452 57.0629ZM881.524 54.7821 883.884 54.7821 883.884 74.1093 881.683 74.1093 881.683 72.3427C880.795 73.7314 879.49 74.4257 877.767 74.4257 876.651 74.4257 875.625 74.1181 874.689 73.5028 873.753 72.8876 873.028 72.0285 872.513 70.9254 871.999 69.8224 871.742 68.5546 871.742 67.122 871.742 65.7245 871.975 64.4567 872.441 63.3185 872.907 62.1803 873.605 61.308 874.537 60.7016 875.469 60.0951 876.51 59.7919 877.662 59.7919 878.505 59.7919 879.257 59.9699 879.916 60.3258 880.575 60.6818 881.111 61.1454 881.524 61.7167ZM838.612 54.7821 840.985 54.7821 840.985 57.5111 838.612 57.5111ZM824.612 54.7821 826.985 54.7821 826.985 57.5111 824.612 57.5111ZM803.612 54.7821 805.985 54.7821 805.985 57.5111 803.612 57.5111ZM784.902 54.7821 791.56 54.7821C793.063 54.7821 794.21 54.8744 795.001 55.059 796.108 55.3139 797.053 55.7753 797.835 56.4433 798.855 57.3046 799.617 58.4054 800.123 59.7458 800.628 61.0861 800.881 62.6176 800.881 64.3402 800.881 65.808 800.709 67.1088 800.367 68.2426 800.024 69.3764 799.584 70.3146 799.048 71.0573 798.512 71.8 797.925 72.3844 797.288 72.8107 796.651 73.237 795.882 73.56 794.981 73.7797 794.08 73.9994 793.045 74.1093 791.876 74.1093L784.902 74.1093Z" fill="url(#fill2)" fill-rule="evenodd"></path><path d="M1108.12 62.811C1107.16 62.811 1106.35 63.1801 1105.69 63.9184 1105.03 64.6567 1104.7 65.7201 1104.7 67.1088 1104.7 68.4975 1105.03 69.561 1105.69 70.2992 1106.35 71.0375 1107.16 71.4067 1108.12 71.4067 1109.09 71.4067 1109.9 71.0375 1110.56 70.2992 1111.21 69.561 1111.54 68.4887 1111.54 67.0824 1111.54 65.7113 1111.21 64.6567 1110.56 63.9184 1109.9 63.1801 1109.09 62.811 1108.12 62.811ZM1138.32 62.6264C1137.51 62.6264 1136.84 62.9208 1136.32 63.5097 1135.79 64.0985 1135.53 64.8984 1135.54 65.9091L1141.08 65.9091C1141.05 64.8368 1140.77 64.0216 1140.25 63.4635 1139.72 62.9054 1139.08 62.6264 1138.32 62.6264ZM1167.86 59.7919C1169.78 59.7919 1171.2 60.1039 1172.13 60.7279 1173.06 61.352 1173.7 62.2748 1174.06 63.4965L1170.56 64.1425C1170.41 63.5976 1170.13 63.1801 1169.71 62.8901 1169.29 62.6 1168.7 62.455 1167.93 62.455 1166.95 62.455 1166.25 62.5912 1165.83 62.8637 1165.55 63.057 1165.41 63.3075 1165.41 63.6152 1165.41 63.8788 1165.53 64.1029 1165.78 64.2875 1166.11 64.5336 1167.26 64.8808 1169.24 65.329 1171.21 65.7773 1172.59 66.3266 1173.37 66.977 1174.14 67.6361 1174.53 68.5546 1174.53 69.7323 1174.53 71.0155 1173.99 72.1186 1172.92 73.0414 1171.85 73.9643 1170.26 74.4257 1168.16 74.4257 1166.26 74.4257 1164.75 74.039 1163.63 73.2655 1162.52 72.4921 1161.79 71.4418 1161.45 70.1147L1165.17 69.5478C1165.33 70.2685 1165.65 70.8156 1166.13 71.1891 1166.62 71.5627 1167.29 71.7494 1168.16 71.7494 1169.12 71.7494 1169.84 71.5736 1170.32 71.2221 1170.65 70.976 1170.81 70.6464 1170.81 70.2333 1170.81 69.9521 1170.72 69.7192 1170.55 69.5346 1170.36 69.3588 1169.95 69.1962 1169.31 69.0468 1166.32 68.3876 1164.43 67.7856 1163.63 67.2406 1162.52 66.4848 1161.97 65.4345 1161.97 64.0898 1161.97 62.8769 1162.45 61.8573 1163.4 61.0312 1164.36 60.205 1165.85 59.7919 1167.86 59.7919ZM1152.86 59.7919C1154.78 59.7919 1156.2 60.1039 1157.13 60.7279 1158.06 61.352 1158.7 62.2748 1159.06 63.4965L1155.56 64.1425C1155.41 63.5976 1155.13 63.1801 1154.71 62.8901 1154.29 62.6 1153.7 62.455 1152.93 62.455 1151.95 62.455 1151.25 62.5912 1150.83 62.8637 1150.55 63.057 1150.41 63.3075 1150.41 63.6152 1150.41 63.8788 1150.53 64.1029 1150.78 64.2875 1151.11 64.5336 1152.26 64.8808 1154.24 65.329 1156.21 65.7773 1157.59 66.3266 1158.37 66.977 1159.14 67.6361 1159.53 68.5546 1159.53 69.7323 1159.53 71.0155 1158.99 72.1186 1157.92 73.0414 1156.85 73.9643 1155.26 74.4257 1153.16 74.4257 1151.26 74.4257 1149.75 74.039 1148.63 73.2655 1147.52 72.4921 1146.79 71.4418 1146.45 70.1147L1150.17 69.5478C1150.33 70.2685 1150.65 70.8156 1151.13 71.1891 1151.62 71.5627 1152.29 71.7494 1153.16 71.7494 1154.12 71.7494 1154.84 71.5736 1155.32 71.2221 1155.65 70.976 1155.81 70.6464 1155.81 70.2333 1155.81 69.9521 1155.72 69.7192 1155.55 69.5346 1155.36 69.3588 1154.95 69.1962 1154.31 69.0468 1151.32 68.3876 1149.43 67.7856 1148.63 67.2406 1147.52 66.4848 1146.97 65.4345 1146.97 64.0898 1146.97 62.8769 1147.45 61.8573 1148.4 61.0312 1149.36 60.205 1150.85 59.7919 1152.86 59.7919ZM1138.1 59.7919C1140.18 59.7919 1141.82 60.4797 1143.03 61.8551 1144.23 63.2306 1144.81 65.3378 1144.75 68.1767L1135.47 68.1767C1135.5 69.2753 1135.8 70.13 1136.37 70.7409 1136.94 71.3517 1137.65 71.6571 1138.51 71.6571 1139.09 71.6571 1139.57 71.4989 1139.97 71.1825 1140.36 70.8661 1140.66 70.3564 1140.87 69.6532L1144.56 70.2729C1144.08 71.6264 1143.33 72.6569 1142.31 73.3644 1141.28 74.0719 1140 74.4257 1138.47 74.4257 1136.03 74.4257 1134.23 73.6303 1133.06 72.0395 1132.14 70.7651 1131.68 69.1567 1131.68 67.2143 1131.68 64.894 1132.28 63.0768 1133.5 61.7629 1134.71 60.4489 1136.24 59.7919 1138.1 59.7919ZM1124.73 59.7919C1126.43 59.7919 1127.79 60.1589 1128.8 60.8927 1129.8 61.6266 1130.53 62.745 1130.97 64.248L1127.31 64.9071C1127.19 64.1777 1126.91 63.6283 1126.48 63.2592 1126.04 62.8901 1125.48 62.7055 1124.78 62.7055 1123.86 62.7055 1123.12 63.0241 1122.57 63.6613 1122.02 64.2985 1121.75 65.3642 1121.75 66.8583 1121.75 68.5194 1122.03 69.6928 1122.59 70.3783 1123.15 71.0639 1123.89 71.4067 1124.83 71.4067 1125.54 71.4067 1126.11 71.2067 1126.56 70.8068 1127.01 70.4069 1127.33 69.7192 1127.51 68.7436L1131.15 69.3632C1130.77 71.0331 1130.05 72.2943 1128.97 73.1469 1127.9 73.9994 1126.47 74.4257 1124.66 74.4257 1122.62 74.4257 1120.98 73.7797 1119.77 72.4877 1118.55 71.1957 1117.94 69.4071 1117.94 67.122 1117.94 64.8105 1118.55 63.0109 1119.77 61.7233 1120.99 60.4357 1122.65 59.7919 1124.73 59.7919ZM1108.11 59.7919C1110.23 59.7919 1111.97 60.4797 1113.32 61.8551 1114.67 63.2306 1115.35 64.9687 1115.35 67.0693 1115.35 69.1874 1114.67 70.943 1113.3 72.3361 1111.93 73.7292 1110.21 74.4257 1108.14 74.4257 1106.85 74.4257 1105.63 74.1357 1104.47 73.5556 1103.3 72.9755 1102.42 72.1252 1101.81 71.0046 1101.2 69.8839 1100.9 68.5194 1100.9 66.911 1100.9 65.6806 1101.2 64.4897 1101.81 63.3383 1102.42 62.1869 1103.28 61.308 1104.39 60.7016 1105.5 60.0951 1106.74 59.7919 1108.11 59.7919ZM1098.23 59.7919C1099.07 59.7919 1099.89 60.0248 1100.67 60.4906L1099.52 63.7206C1098.9 63.3163 1098.32 63.1142 1097.78 63.1142 1097.26 63.1142 1096.82 63.257 1096.46 63.5426 1096.1 63.8283 1095.82 64.3446 1095.61 65.0917 1095.41 65.8388 1095.3 67.4032 1095.3 69.7851L1095.3 74.1093 1091.6 74.1093 1091.6 60.1083 1095.04 60.1083 1095.04 62.099C1095.63 61.1586 1096.16 60.539 1096.63 60.2402 1097.1 59.9413 1097.63 59.7919 1098.23 59.7919ZM1077.69 58.0517 1077.69 63.536 1079.82 63.536C1081.36 63.536 1082.39 63.435 1082.91 63.2328 1083.43 63.0307 1083.83 62.7143 1084.13 62.2836 1084.42 61.8529 1084.57 61.352 1084.57 60.7807 1084.57 60.0776 1084.36 59.4975 1083.95 59.0404 1083.54 58.5834 1083.01 58.2978 1082.38 58.1835 1081.91 58.0956 1080.98 58.0517 1079.57 58.0517ZM1073.78 54.7821 1080.05 54.7821C1082.42 54.7821 1083.97 54.8788 1084.69 55.0722 1085.79 55.3622 1086.72 55.9928 1087.47 56.964 1088.22 57.9352 1088.59 59.1899 1088.59 60.7279 1088.59 61.9145 1088.37 62.912 1087.94 63.7206 1087.51 64.5292 1086.97 65.1642 1086.3 65.6256 1085.64 66.0871 1084.96 66.3925 1084.28 66.5419 1083.35 66.7265 1082 66.8188 1080.23 66.8188L1077.69 66.8188 1077.69 74.1093 1073.78 74.1093Z" fill="url(#fill3)" fill-rule="evenodd"></path><path d="M0 0 124.053 0 124.053 131.384" stroke="#0066FF" stroke-linejoin="round" stroke-miterlimit="10" fill="none" fill-rule="evenodd" transform="matrix(-1 1.22465e-16 1.22465e-16 1 769.553 64.5001)"></path></g></svg>